<svg style="enable-background:new 0 0 18 18" version="1.1" viewBox="0 0 18 18" xmlns="http://www.w3.org/2000/svg">
 <style type="text/css">.st0{fill:#0E0E0E;}
	.st1{fill:#8F0000;}
	.st2{fill:#3A3A3A;}
	.st3{fill:#E70707;}</style>
 <path class="st0" d="m12 5.3 0.69136 0.22807s1.1193-0.45523 1.8429-1.0265c0.72766-0.6712-0.15951-1.0073-0.15951-1.0073z"/>
 <polygon class="st1" points="6.6 2.2 5.5 2.9 0.7 16.3 1.6 16.8"/>
 <path class="st2" d="m12 3.2v2.1s1.1-0.5 2-1.3v6.5l2.3 0.2v-10.2l-1.8 0.3c0-0.2-0.4 1.4-2.5 2.4z"/>
 <polygon class="st0" points="16.3 0.5 16.8 0.9 16.8 10.6 16.3 10.7"/>
 <polygon class="st1" points="7.6 8 9.6 15.5 10.6 15.8 8.3 6.3"/>
 <path class="st3" d="m13.5 15.6-3.8-12.7-3.1-0.7-5 14.6 3.4-0.3 0.8-2.9 4.1-0.2 0.7 2.5 2.9-0.3zm-6.7-4.5 1.5-4.7 1.1 4.7h-2.6z"/>
</svg>
