<svg version="1.1" viewBox="0 0 48 48" xmlns="http://www.w3.org/2000/svg">
 <polygon transform="matrix(.24097 0 0 .24096 .49879 .5)" points="23.025 97.527 70.047 144.55 73.787 140.81 33.138 100.16 166.84 100.16 166.84 94.882 33.138 94.882 73.787 54.245 70.047 50.501" style="fill:#FFC61A;stroke-width:4.15;stroke:#FFC61A"/>
 <path d="m24 0.5c-12.958 0-23.5 10.542-23.5 23.501 0 12.956 10.542 23.499 23.5 23.499s23.5-10.543 23.5-23.499c0-12.959-10.541-23.501-23.5-23.501zm0 45.888c-12.345 0-22.39-10.043-22.39-22.388 0-12.347 10.044-22.391 22.39-22.391 12.344 0 22.39 10.044 22.39 22.39 0 12.345-10.045 22.389-22.39 22.389z" style="fill:#FFC61A;stroke:#FFC61A"/>
</svg>
