<svg version="1.1" viewBox="0 0 47.99 48" xmlns="http://www.w3.org/2000/svg">
 <g transform="matrix(.099345 0 0 .099366 .49994 .50004)" style="stroke-width:1.0202">
  <g style="stroke-width:10.065;stroke:#fff">
   <path d="m459.5 0h-129.1c-7.5 0-13.5 6-13.5 13.5s6 13.5 13.5 13.5h96.5l-208.1 208.1c-5.3 5.3-5.3 13.8 0 19.1 2.6 2.6 6.1 4 9.5 4s6.9-1.3 9.5-4l208.2-208.1v96.5c0 7.5 6 13.5 13.5 13.5s13.5-6 13.5-13.5v-129.1c0-7.5-6-13.5-13.5-13.5z" style="stroke-width:10.065;stroke:#fff; fill:#fff;"/>
   <path d="m459.5 231.2c-7.5 0-13.5 6-13.5 13.5v130.9c0 38.8-31.6 70.4-70.4 70.4h-278.2c-38.8 0-70.4-31.6-70.4-70.4v-278.2c0-38.8 31.6-70.4 70.4-70.4h129.9c7.5 0 13.5-6 13.5-13.5s-6-13.5-13.5-13.5h-129.9c-53.7 0-97.4 43.7-97.4 97.4v278.2c0 53.7 43.7 97.4 97.4 97.4h278.2c53.7 0 97.4-43.7 97.4-97.4v-130.9c0-7.5-6-13.5-13.5-13.5z" style="stroke-width:10.065;stroke:#fff; fill:#fff;"/>
  </g>
 </g>
</svg>
