<svg width="34.73" height="48" version="1.1" viewBox="70.77 0 34.73 48" xmlns="http://www.w3.org/2000/svg">
 <path d="m101.8 19.924c-1.1526-0.10969-2.3021 0.27112-3.1537 1.0453-0.10519 0.09572-0.20494 0.1965-0.29887 0.30159-0.63797-1.191-1.8121-2.0455-3.1824-2.1763-1.1527-0.10969-2.3021 0.27112-3.1536 1.0453-0.10519 0.09572-0.20494 0.1965-0.29887 0.30159-0.55697-1.0396-1.5225-1.8228-2.6705-2.092 1.9897-1.9779 3.1836-4.7062 3.1836-7.6195-9.3e-5 -5.9165-4.8136-10.73-10.731-10.73s-10.73 4.8135-10.73 10.73c0 4.3408 2.6488 8.2729 6.635 9.9206v4.6083l-2.9877 2.1341c-1.7702 1.2645-2.4973 3.5007-1.8094 5.5643l2.9467 8.8403c1.2368 3.71 4.6952 6.2027 8.6059 6.2027h12.268c5.0019 0 9.0712-4.0693 9.0712-9.0712v-14.786c0-2.1681-1.6232-4.0209-3.6954-4.2186zm-29.48-9.194c0-5.059 4.1159-9.1749 9.1749-9.1749 5.059 0 9.1749 4.1159 9.1749 9.1749 0 3.492-2.0046 6.6741-5.0799 8.2119v-2.0331c2.0571-1.3668 3.3175-3.6937 3.3175-6.1789 0-4.0872-3.3253-7.4125-7.4125-7.4125s-7.4125 3.3253-7.4125 7.4125c0 2.4849 1.2606 4.812 3.3175 6.1789v2.0331c-3.0752-1.5378-5.0799-4.72-5.0799-8.2119zm9.5747-4.0759c-1.1527-0.10987-2.3021 0.27094-3.1536 1.0452-0.85219 0.77484-1.341 1.8795-1.341 3.0307v4.1854c-1.1099-1.0899-1.7624-2.5968-1.7624-4.1854 0-3.2298 2.6276-5.8574 5.8574-5.8574s5.8574 2.6276 5.8574 5.8574c0 1.5888-0.6525 3.0955-1.7624 4.1855v-4.0428c9.4e-5 -2.1681-1.6231-4.0211-3.6954-4.2186zm14.529 39.791h-12.268c-3.2404 0-6.1058-2.0653-7.1305-5.1393l-2.9466-8.8402c-0.47081-1.412 0.02672-2.942 1.238-3.8071l2.0839-1.4886v6.783c0 0.42937 0.348 0.77756 0.77756 0.77756 0.42947 0 0.77756-0.34809 0.77756-0.77756v-23.223c0-0.71409 0.30328-1.3994 0.83194-1.88 0.53587-0.48722 1.2324-0.71737 1.9599-0.64781 1.2831 0.12225 2.2881 1.2952 2.2881 2.6704v16.445c0 0.42937 0.348 0.77756 0.77756 0.77756 0.42947 0 0.77756-0.34809 0.77756-0.77756v-4.9762c0-0.71409 0.30328-1.3994 0.83194-1.88 0.53578-0.48712 1.2316-0.71784 1.9599-0.64781 1.283 0.12234 2.288 1.2953 2.288 2.6705v5.663c0 0.42937 0.348 0.77756 0.77756 0.77756s0.77756-0.34809 0.77756-0.77756v-4.9762c0-0.71409 0.30328-1.3994 0.83194-1.88 0.53578-0.48712 1.2316-0.71784 1.9599-0.64781 1.283 0.12234 2.288 1.2953 2.288 2.6705v5.6628c0 0.42937 0.348 0.77756 0.77756 0.77756s0.77756-0.34809 0.77756-0.77756v-4.9762c0-0.71409 0.30319-1.3994 0.83194-1.88 0.53578-0.48712 1.2316-0.71784 1.9599-0.64781 1.283 0.12234 2.288 1.2953 2.288 2.6705v14.786h2.8e-4c-2.8e-4 4.1445-3.372 7.5162-7.5165 7.5162z" style="fill:#fff"/>
</svg>
