<svg fill="none" xmlns="http://www.w3.org/2000/svg" viewBox="0 0 48 48"><path d="M24 0c13.2548 0 24 10.7452 24 24S37.2548 48 24 48 0 37.2548 0 24 10.7452 0 24 0z" fill="#7F4DA0"/><path d="M30.3941 20.9584c-.1167-.9483-.4082-1.6929-.9258-2.3525-.6722-.8493-1.5311-1.3578-2.8028-1.6595-.8288-.2011-1.1636-.178-1.4633.0958-.2792.2565-.3337.7707-.1204 1.1038.1501.2417.3232.3282.8046.4227.6411.118 1.0842.2711 1.4872.5015.8554.494 1.2538 1.2669 1.2965 2.5183.0199.5875.0707.7681.2759.9765.3803.3809 1.0572.3069 1.3444-.149.1053-.1718.1214-.2466.1325-.6455.0074-.247-.0033-.6147-.0288-.8121z" fill="#fff"/><path d="M33.7446 22.0276c-.1689-2.9054-1.3053-5.2429-3.3391-6.8875-1.1459-.9241-2.531-1.5596-4.0492-1.8686-.5562-.1105-1.5801-.2001-1.7558-.1489-.1658.0475-.4002.227-.5047.3893-.1106.176-.1355.569-.0412.7964.1522.38.4352.5142 1.228.5836 1.2221.1069 2.4826.5363 3.435 1.1719 1.0873.7238 1.9517 1.7137 2.5108 2.8769.4832.9994.7803 2.4397.7721 3.7295-.0028.4665.0693.7299.2568.9225.2832.2962.696.3609 1.0603.1642.4037-.2123.4981-.585.427-1.7293zM37.4522 33.2163c-.0568-.1661-.1894-.4222-.2841-.5693-.5969-.9013-3.8036-3.4108-5.4046-4.2315-.9142-.4696-1.5915-.6261-2.0936-.4792-.54.1519-.8242.4033-1.7289 1.5276-.3647.4507-.7389.8729-.8384.9393-.2463.1708-.7295.3084-1.0705.3084-.791-.0048-2.2262-.5171-3.3299-1.1908-.8573-.5218-1.9562-1.4563-2.7994-2.3814-.9947-1.0863-1.672-2.0446-2.2073-3.1262-.6915-1.3899-.8668-2.2391-.5779-2.8606.0711-.1565.1659-.3225.2084-.3747.0427-.0474.488-.4127.9805-.8112.9664-.7685 1.1227-.944 1.3026-1.4706.2274-.6689.1659-1.352-.1847-2.0398-.27-.5219-.9757-1.6604-1.4873-2.3957-.6773-.9677-2.3636-3.036-2.7-3.316-.6062-.4933-1.383-.5787-2.2404-.2466-.9046.351-2.6004 1.7173-3.3252 2.6708-.6536.8634-.9046 1.4753-.9425 2.2817-.0331.6642.0237.9393.3742 1.7885 2.7425 6.6603 6.835 11.9782 12.4575 16.2003 2.9367 2.2058 5.9824 3.8852 9.1418 5.0333 1.8425.6688 2.643.702 3.5856.1518.3979-.2373 1.3831-1.2477 1.9326-1.983.9094-1.224 1.2458-1.7884 1.3405-2.2391.0663-.3084.0142-.8444-.109-1.186z" fill="#fff"/><path d="M37.1555 22.6949c-.0607-1.6435-.3374-2.9915-.9144-4.4944-.5696-1.4784-1.1461-2.4431-2.2349-3.7479-1.0293-1.2235-1.8289-1.922-3.0969-2.6996-1.7691-1.0834-3.9221-1.8003-6.3349-2.1019-.8228-.1053-1.009-.0978-1.2614.0706-.4892.3191-.4827 1.115.008 1.4293.1625.1.3066.1364.9648.2225 1.0104.1361 1.6601.2643 2.431.4746 3.023.8264 5.3477 2.5155 6.9019 5.023 1.3006 2.09 1.8405 4.1801 1.7639 6.8496-.0267.9025-.0073 1.0613.1306 1.2781.2642.4042.9609.4841 1.3183.1487.2224-.2043.2643-.3578.3081-1.1302.021-.4029.0255-.9978.0159-1.3224z" fill="#fff"/></svg>