<svg version="1.1" viewBox="0 0 48 48" xmlns="http://www.w3.org/2000/svg">
 <path d="m24 48c13.255 0 24-10.745 24-24s-10.745-24-24-24-24 10.745-24 24 10.745 24 24 24z" fill="#25d366"/>
 <path d="m24.791 37.353h-0.0059c-2.3885-9e-4 -4.7354-0.6001-6.8199-1.7371l-7.5653 1.9845 2.0246-7.3951c-1.2489-2.1643-1.906-4.6194-1.905-7.1346 0.0032-7.8686 6.4052-14.27 14.271-14.27 3.8177 0.0016 7.4009 1.4878 10.095 4.1854 2.6944 2.6974 4.1774 6.2829 4.1759 10.096-0.0031 7.8667-6.4026 14.268-14.271 14.271zm-6.4752-4.3207 0.4331 0.2571c1.8212 1.0807 3.9088 1.6526 6.0373 1.6534h0.0048c6.5377 0 11.859-5.3212 11.861-11.862 0.0013-3.1694-1.2313-6.1496-3.4708-8.3917s-5.2177-3.4774-8.386-3.4785c-6.5428 0-11.864 5.3207-11.866 11.861-9e-4 2.2413 0.6262 4.4241 1.8135 6.3126l0.2821 0.4488-1.1983 4.3771zm13.176-6.8778c0.2487 0.1202 0.4167 0.2014 0.4884 0.3211 0.0891 0.1487 0.0891 0.8626-0.2079 1.6957-0.2973 0.8329-1.7219 1.5931-2.407 1.6955-0.6143 0.0918-1.3918 0.1301-2.246-0.1413-0.5179-0.1643-1.182-0.3837-2.0328-0.7512-3.3429-1.4434-5.6021-4.6835-6.0291-5.2958-0.0299-0.0429-0.0508-0.0729-0.0625-0.0885l-0.0028-0.0038c-0.1887-0.2518-1.4532-1.9389-1.4532-3.685 0-1.6425 0.8068-2.5034 1.1782-2.8997a9.4435 9.4435 0 0 0 0.0698-0.075c0.3269-0.357 0.7132-0.4463 0.9509-0.4463s0.4757 0.0022 0.6835 0.0126c0.0256 0.0013 0.0523 0.0012 0.0798 1e-3 0.2078-0.0012 0.4669-0.0027 0.7225 0.6112 0.0983 0.2362 0.2422 0.5865 0.3939 0.9559 0.3068 0.747 0.6459 1.5723 0.7055 1.6918 0.0892 0.1785 0.1486 0.3866 0.0297 0.6247-0.0178 0.0357-0.0343 0.0694-0.0501 0.1016-0.0893 0.1822-0.1549 0.3163-0.3065 0.4932a14.786 14.786 0 0 0-0.1827 0.2196c-0.1227 0.1494-0.2453 0.2988-0.3521 0.4052-0.1786 0.1778-0.3644 0.3707-0.1564 0.7277s0.9237 1.5247 1.9837 2.4702c1.1396 1.0164 2.13 1.446 2.632 1.6638 0.098 0.0425 0.1774 0.077 0.2357 0.1061 0.3564 0.1786 0.5644 0.1487 0.7725-0.0892 0.208-0.238 0.8914-1.0413 1.129-1.3982 0.2377-0.3569 0.4755-0.2974 0.8023-0.1785 0.327 0.1191 2.0801 0.9817 2.4367 1.1601 0.0696 0.0349 0.1347 0.0664 0.195 0.0955z" clip-rule="evenodd" fill="#fdfdfd" fill-rule="evenodd"/>
</svg>
